<svg xmlns="http://www.w3.org/2000/svg" viewBox="0 0 4000 1000"><title>Batam Js</title><path d="M542.91,402.1l.08,0,47.33,288c39.14,2.58,75.6,6.45,109.12,11.08L542.91,339.23Z" fill="#ea5f57"/><path d="M486.67,686.68c11.64,0,23,.17,34.33.41L487.3,482,453.61,687.06C464.48,686.83,475.46,686.68,486.67,686.68Z" fill="#ea5f57"/><path d="M431.61,402.07l.08,0V339.23L275.23,701c33.49-4.62,69.92-8.47,109.06-11Z" fill="#ea5f57"/><path d="M431.69,180.92v-76H542.91v76L925,714.31A485.25,485.25,0,0,0,974.6,500c0-269.13-218.17-487.3-487.3-487.3S0,230.87,0,500A485.25,485.25,0,0,0,49.57,714.31Z" fill="#ea5f57"/><path d="M899,744.05,548.75,255.12l195.9,453C812.36,719.68,865,733.63,899,744.05Z" fill="#ea5f57"/><path d="M532.84,759.17q-22.59-.7-46.17-.73-22.95,0-44.91.69L405.4,980.41a490.21,490.21,0,0,0,163.8,0Z" fill="#ea5f57"/><path d="M230,708,425.85,255.13,75.65,744C109.73,733.48,162.29,719.51,230,708Z" fill="#ea5f57"/><path d="M602.29,763l33.09,201.4A488,488,0,0,0,864.27,808.8C811,793.52,719.9,772.16,602.29,763Z" fill="#ea5f57"/><path d="M372.33,762.83c-118.15,9.11-209,30.49-262.11,45.83a488,488,0,0,0,229,155.7Z" fill="#ea5f57"/><path d="M1336.2,714.31V197h187.13q60.69,0,105.12,40.1t44.43,100.79q0,36.84-19.14,65a120.66,120.66,0,0,1-50.94,42.63v2.89a131,131,0,0,1,62.86,44.79q24.54,31.81,24.56,73.7,0,63.58-46.6,105.48t-110.18,41.91Zm66.47-295.5h120.66q37.55,0,60.32-24.93t22.76-54.54q0-29.62-22-54.19t-58.16-24.57H1402.67Zm0,231.92h133.66q38.28,0,62.14-26.73t23.84-58.53q0-31.79-24.57-58.16t-64.3-26.37H1402.67Z" fill="#303030"/><path d="M1865.78,725.87q-56.35,0-94.28-32.51t-37.93-86q0-57.79,44.79-90.67t110.54-32.88q58.53,0,96.09,21.68V495.39q0-39-26.73-62.49t-65.74-23.49q-28.9,0-52.39,13.73T1808,460.71l-60.69-26q12.29-31.79,48.41-58.88t95.37-27.09q67.9,0,112.71,39.73t44.79,112V714.31H1985V665.18h-2.89Q1942.36,725.87,1865.78,725.87Zm10.84-60.69q41.18,0,74.78-30.71T1985,561.86q-28.17-23.11-84.53-23.12-48.4,0-73,21t-24.56,49.13q0,26,22.39,41.19T1876.62,665.18Z" fill="#303030"/><path d="M2269.65,720.09q-55.64,0-84.89-29.62t-29.26-83.81V421h-62.13V360.29h62.13V251.91H2222V360.29h86.7V421H2222V601.6q0,57.81,47.68,57.8,18.06,0,30.35-5.78l23.12,57.07Q2301.45,720.08,2269.65,720.09Z" fill="#303030"/><path d="M2477,725.87q-56.36,0-94.29-32.51t-37.93-86q0-57.79,44.8-90.67t110.54-32.88q58.51,0,96.09,21.68V495.39q0-39-26.73-62.49t-65.75-23.49q-28.9,0-52.38,13.73t-32.15,37.57l-60.69-26q12.27-31.79,48.41-58.88t95.37-27.09q67.89,0,112.7,39.73t44.8,112V714.31h-63.58V665.18h-2.89Q2553.58,725.87,2477,725.87Zm10.83-60.69q41.19,0,74.78-30.71t33.6-72.61q-28.18-23.11-84.53-23.12-48.42,0-73,21t-24.57,49.13q0,26,22.4,41.19T2487.84,665.18Z" fill="#303030"/><path d="M2734.93,714.31v-354h63.58v49.12h2.89q15.17-25.28,46.6-43t62.5-17.7q82.36,0,112,67.91,43.35-67.9,123.55-67.91,62.85,0,94.65,40.1t31.78,108.73V714.31H3206V507.67q0-53.46-19.51-75.86t-59.25-22.4q-39,0-64.66,33.24t-25.65,75.86v195.8h-66.47V507.67q0-53.46-19.5-75.86t-59.25-22.4q-39,0-64.66,33.24t-25.65,75.86v195.8Z" fill="#303030"/><path d="M3479.81,725.87q-56.36,0-96.09-31.43t-56.35-88.51l60.69-25.28q23.11,81.65,94.64,81.64,46.23,0,71.17-30T3578.79,551V197h66.47V549.58q0,84.52-46.6,130.41T3479.81,725.87Z" fill="#303030"/><path d="M3860.56,725.87q-59.25,0-97.9-28.9T3706,624.72l59.24-24.57q28.17,66.48,96.09,66.47,31,0,50.94-13.72t19.86-36.13q0-34.68-48.4-47l-71.53-17.34q-34-8.67-64.3-32.87t-30.35-65.39q0-46.95,41.55-76.22t98.62-29.26q46.95,0,83.81,21.31t52.74,61l-57.8,23.84q-19.5-46.95-80.92-47-29.62,0-49.85,12.28t-20.23,33.24q0,30.35,47,41.18l70.08,16.62q49.86,11.56,73.7,39.74T4000,614.6q0,47.68-39,79.48T3860.56,725.87Z" fill="#303030"/><rect width="4000" height="1000" fill="none"/></svg>